<?xml version="1.0" encoding="UTF-8" standalone="no"?>
<svg
   version="1.1"
   id="svg1"
   sodipodi:docname="pawn.svg"
   width="26"
   height="52"
   inkscape:version="1.3.2 (091e20e, 2023-11-25, custom)"
   xmlns:inkscape="http://www.inkscape.org/namespaces/inkscape"
   xmlns:sodipodi="http://sodipodi.sourceforge.net/DTD/sodipodi-0.dtd"
   xmlns="http://www.w3.org/2000/svg"
   xmlns:svg="http://www.w3.org/2000/svg">
  <sodipodi:namedview
     id="namedview1"
     pagecolor="#000000"
     bordercolor="#000000"
     borderopacity="0.25"
     inkscape:showpageshadow="2"
     inkscape:pageopacity="0.0"
     inkscape:pagecheckerboard="0"
     inkscape:deskcolor="#d1d1d1"
     labelstyle="below"
     inkscape:zoom="3.61"
     inkscape:cx="65.235457"
     inkscape:cy="71.32964"
     inkscape:window-width="1600"
     inkscape:window-height="829"
     inkscape:window-x="-8"
     inkscape:window-y="-8"
     inkscape:window-maximized="1"
     inkscape:current-layer="svg1" />
  <defs
     id="defs1" />
  <g
     id="g1"
     transform="translate(13,26)">
    <path
       stroke="none"
       fill="#ffffff"
       d="m 13,-13.1 q 0,5.35 -3.9,9.1 l -0.65,0.65 0.8,1.55 q 3.7,8.25 3.75,20 v 0.15 Q 13,21.5 9.25,23.75 5.45,26 0,26 -5.35,26 -9.15,23.75 -13,21.5 -13,18.35 V 18.2 q 0.05,-11.75 3.85,-20 L -8.4,-3.3 -9.15,-4 Q -13,-7.75 -13,-13.1 q 0,-5.4 3.85,-9.15 Q -5.35,-26 0,-26 q 5.35,0 9.1,3.75 3.9,3.75 3.9,9.15"
       id="path1" />
  </g>
</svg>
